<?xml version="1.0" ?><!DOCTYPE svg  PUBLIC '-//W3C//DTD SVG 1.1//EN'  'http://www.w3.org/Graphics/SVG/1.1/DTD/svg11.dtd'><svg height="512px" style="enable-background:new 0 0 512 512;" version="1.1" viewBox="0 0 512 512" width="512px" xml:space="preserve" xmlns="http://www.w3.org/2000/svg" xmlns:xlink="http://www.w3.org/1999/xlink"><style type="text/css">
<![CDATA[
	.st0{display:inline;}
	.st1{fill:none;stroke:#000000;stroke-width:16;stroke-linecap:round;stroke-linejoin:round;stroke-miterlimit:10;}
	.st2{display:none;}
]]>
</style><g class="st2" id="Layer"><g class="st0"><polyline class="st1" points="254,455 455,455 455,57 254,57   "/><g><polyline class="st1" points="104,256 360,256 278,338 360,255.999 278,174    "/><g><path d="M80.5,248.5c4.136,0,7.5,3.364,7.5,7.5s-3.364,7.5-7.5,7.5S73,260.136,73,256S76.364,248.5,80.5,248.5 M80.5,232.5      C67.521,232.5,57,243.021,57,256s10.521,23.5,23.5,23.5S104,268.979,104,256S93.479,232.5,80.5,232.5L80.5,232.5z"/></g></g></g></g><g id="expanded"><g><path d="M455,463H254c-4.418,0-8-3.582-8-8s3.582-8,8-8h193V65H254c-4.418,0-8-3.582-8-8s3.582-8,8-8h201c4.418,0,8,3.582,8,8v398    C463,459.418,459.418,463,455,463z"/><path d="M367.747,254.003c-0.354-1.374-1.07-2.641-2.09-3.661l-82-81.999c-3.125-3.124-8.189-3.124-11.314,0    c-3.124,3.124-3.124,8.189,0,11.313L340.688,248H104c-0.463,0-0.915,0.048-1.357,0.124C99.404,239.02,90.715,232.5,80.5,232.5    C67.521,232.5,57,243.021,57,256s10.521,23.5,23.5,23.5c10.215,0,18.904-6.52,22.143-15.624c0.442,0.076,0.894,0.124,1.357,0.124    h236.686l-68.343,68.343c-3.124,3.125-3.124,8.189,0,11.314c1.563,1.562,3.609,2.343,5.657,2.343s4.095-0.781,5.657-2.343l82-82    C367.678,259.637,368.447,256.717,367.747,254.003z M80.5,263.5c-4.136,0-7.5-3.364-7.5-7.5s3.364-7.5,7.5-7.5s7.5,3.364,7.5,7.5    S84.636,263.5,80.5,263.5z"/></g></g></svg>